<svg id="图层_1" data-name="图层 1" xmlns="http://www.w3.org/2000/svg" viewBox="0 0 40 40"><defs><style>.cls-1,.cls-3{fill:#337dff;}.cls-2{fill:none;stroke:#337dff;stroke-linecap:round;stroke-miterlimit:10;stroke-width:1.5px;}.cls-3{opacity:0.15;isolation:isolate;}</style></defs><title>创建边缘服务</title><path class="cls-1" d="M19.29,15.87a2.75,2.75,0,1,0-2.75-2.75A2.75,2.75,0,0,0,19.29,15.87Zm0-1.2a1.55,1.55,0,1,1,1.54-1.55A1.54,1.54,0,0,1,19.29,14.67ZM12.88,26.85a2.75,2.75,0,1,0-2.74-2.75A2.75,2.75,0,0,0,12.88,26.85Zm0-1.2a1.55,1.55,0,1,1,1.55-1.55A1.55,1.55,0,0,1,12.88,25.65Zm12.81,1.2a2.75,2.75,0,1,0-2.75-2.75A2.74,2.74,0,0,0,25.69,26.85Zm0-1.2a1.55,1.55,0,1,1,0-3.09,1.55,1.55,0,0,1,0,3.09Z"/><path class="cls-1" d="M19.27,35.1A15.1,15.1,0,1,0,4.17,20,15.1,15.1,0,0,0,19.27,35.1Zm0-1.5A13.6,13.6,0,1,1,32.86,20,13.61,13.61,0,0,1,19.27,33.6Z"/><polyline class="cls-2" points="15.26 22.88 19.29 20 19.27 15.55"/><circle class="cls-3" cx="22.51" cy="18.96" r="14.63"/><line class="cls-2" x1="23.76" y1="22.56" x2="19.29" y2="20"/></svg>