<svg id="图层_1" data-name="图层 1" xmlns="http://www.w3.org/2000/svg" viewBox="0 0 40 40"><defs><style>.cls-1,.cls-2{fill:#337dff;}.cls-2{opacity:0.15;isolation:isolate;}</style></defs><title>注册设备</title><path class="cls-1" d="M29.64,6.9H8.26A3.15,3.15,0,0,0,5.11,10V31.42a3.15,3.15,0,0,0,3.15,3.15H29.64a3.15,3.15,0,0,0,3.14-3.15V10A3.15,3.15,0,0,0,29.64,6.9ZM6.42,16.7h25V31.38a1.81,1.81,0,0,1-1.81,1.8H8.22a1.8,1.8,0,0,1-1.8-1.8V16.7ZM7.85,8.27H29.94A1.6,1.6,0,0,1,31.38,10V15.3h-25V10A1.6,1.6,0,0,1,7.85,8.27Z"/><path class="cls-1" d="M26.15,10.34h1.44v1.43H26.15Z"/><rect class="cls-1" x="8.77" y="10.33" width="13.98" height="1.44" rx="0.7"/><rect class="cls-2" x="8.2" y="4.28" width="27.67" height="27.67" rx="2.89"/><path class="cls-1" d="M23.17,23.83v0L18.3,28.36a.65.65,0,0,1-.81.07l-.12-.11-2.68-2.77a.66.66,0,0,1,0-.93.69.69,0,0,1,.95,0L17.88,27l4.37-4.1a.69.69,0,0,1,.95,0,.67.67,0,0,1,0,.94Z"/></svg>