<svg id="图层_1" data-name="图层 1" xmlns="http://www.w3.org/2000/svg" viewBox="0 0 40 40"><defs><style>.cls-1,.cls-2{fill:#337dff;}.cls-1{opacity:0.15;isolation:isolate;}</style></defs><title>消息设置</title><path class="cls-1" d="M32,27.1H25.72l-4.83,5.19L16.37,27.1H9.77a3.2,3.2,0,0,1-3.19-3.19v-13a3.21,3.21,0,0,1,3.19-3.2H32a3.21,3.21,0,0,1,3.2,3.2v13A3.2,3.2,0,0,1,32,27.1Z"/><path class="cls-2" d="M18.12,23A1.94,1.94,0,0,0,20,21v-.09A2,2,0,1,0,18.12,23Zm-.07-1.2a.8.8,0,0,1-.8-.77.81.81,0,0,1,.76-.83h0a.82.82,0,0,1,.83.77.78.78,0,0,1-.75.83ZM10.94,23a1.94,1.94,0,0,0,1.92-2v-.09A2,2,0,1,0,10.94,23Zm-.07-1.2a.8.8,0,0,1-.8-.77.81.81,0,0,1,.76-.83h0a.83.83,0,0,1,.84.77.78.78,0,0,1-.75.83Zm14,1.2a1.94,1.94,0,0,0,1.91-2v-.11A2,2,0,1,0,24.85,23Zm-.1-1.2A.81.81,0,0,1,24,21a.73.73,0,0,1,.21-.56.83.83,0,0,1,.56-.27h0a.82.82,0,0,1,.83.77V21a.75.75,0,0,1-.21.55.7.7,0,0,1-.52.23Z"/><path class="cls-2" d="M18,34.57a.25.25,0,0,1-.2-.09S14,30.89,13.05,29.91H7.61a3.69,3.69,0,0,1-3.44-3.78V14.26a3.44,3.44,0,0,1,3.35-3.49H22.35a.75.75,0,0,1,.6.89.77.77,0,0,1-.6.6H7.52a2,2,0,0,0-1.9,2V26.13a2.22,2.22,0,0,0,2,2.21h5.31a2.26,2.26,0,0,1,1.23.62L18,32.55,21.91,29a1.78,1.78,0,0,1,1.14-.62h5.37a2.22,2.22,0,0,0,2-2.21V19.72a.74.74,0,0,1,1.48,0v6.41a3.68,3.68,0,0,1-3.44,3.7H23c-1.93,1.83-4.77,4.62-4.77,4.62A.28.28,0,0,1,18,34.57Z"/><path class="cls-2" d="M36.11,12.32l-.53-.39a.37.37,0,0,1-.14-.3,1.41,1.41,0,0,0,0-.21,1.48,1.48,0,0,0,0-.21.37.37,0,0,1,.14-.29l.53-.4a1.44,1.44,0,0,0,.38-1.93L35.8,7.45a1.47,1.47,0,0,0-1.25-.7,1.45,1.45,0,0,0-.51.1l-.73.28a.32.32,0,0,1-.3,0c-.17-.1-.34-.2-.51-.28a.37.37,0,0,1-.19-.25l-.1-.63a1.47,1.47,0,0,0-1.45-1.25H29.38a1.46,1.46,0,0,0-1.45,1.25l-.1.62a.33.33,0,0,1-.18.26,4.16,4.16,0,0,0-.51.28.32.32,0,0,1-.3,0l-.73-.27a1.3,1.3,0,0,0-.51-.11,1.47,1.47,0,0,0-1.25.7l-.69,1.14a1.44,1.44,0,0,0,.39,1.93l.53.4a.34.34,0,0,1,.14.29,1.34,1.34,0,0,0,0,.2,1.48,1.48,0,0,0,0,.21.35.35,0,0,1-.14.3l-.54.4a1.45,1.45,0,0,0-.38,1.93l.69,1.15a1.48,1.48,0,0,0,1.25.69,1.29,1.29,0,0,0,.51-.1l.73-.27a.32.32,0,0,1,.3,0c.16.1.33.19.51.28a.35.35,0,0,1,.19.25l.14.91a1.1,1.1,0,0,0,1.11.95h1.68a1.46,1.46,0,0,0,1.45-1.24l.09-.63A.33.33,0,0,1,32.5,16c.17-.09.34-.18.51-.29a.35.35,0,0,1,.3,0L34,16a1.25,1.25,0,0,0,.51.1,1.47,1.47,0,0,0,1.25-.7l.69-1.14a1.46,1.46,0,0,0-.38-1.92m-.58,1.35-.7,1.14a.35.35,0,0,1-.29.16l-.11,0h0l-1.25-.48-.12,0a.31.31,0,0,0-.2.07l-.17.12a4,4,0,0,1-1,.53l-.19.08a.33.33,0,0,0-.21.26l-.19,1.24a.34.34,0,0,1-.34.29H29.38a.34.34,0,0,1-.34-.29l-.19-1.24a.34.34,0,0,0-.2-.26h0l-.18-.07a4.31,4.31,0,0,1-1-.53l-.18-.13a.27.27,0,0,0-.2-.07l-.1,0h0l-1.26.47a.24.24,0,0,1-.12,0,.37.37,0,0,1-.3-.16l-.67-1.13a.33.33,0,0,1,.09-.45l1.05-.78a.31.31,0,0,0,.14-.31l0-.17a2.94,2.94,0,0,1,0-1.08l0-.16a.33.33,0,0,0-.14-.32l-1.05-.77a.35.35,0,0,1-.09-.45L25.32,8a.32.32,0,0,1,.29-.15h.1l0,0L27,8.38l.12,0a.31.31,0,0,0,.19-.06l.18-.13a4.33,4.33,0,0,1,1-.52l.19-.08a.37.37,0,0,0,.21-.26L29,6.1a.34.34,0,0,1,.34-.29h1.39a.35.35,0,0,1,.34.29l.19,1.25a.29.29,0,0,0,.2.25h0l.18.08a3.91,3.91,0,0,1,1,.52l.17.14a.37.37,0,0,0,.21.06h.14l1.26-.48.12,0a.37.37,0,0,1,.3.15l.69,1.15a.33.33,0,0,1-.09.45l-1.05.77a.33.33,0,0,0-.14.32l0,.16a2.94,2.94,0,0,1,0,1.08l0,.17a.31.31,0,0,0,.14.31l1.05.78a.36.36,0,0,1,.07.44"/><path class="cls-2" d="M30.3,8.63h-.23V9.74h.14a1.71,1.71,0,0,1,1.54,1.54,1.75,1.75,0,0,1-.44,1.28,1.7,1.7,0,0,1-1.24.53h-.13a1.69,1.69,0,0,1-1.54-1.53,1.73,1.73,0,0,1,.44-1.28,1.67,1.67,0,0,1,1.23-.54V8.62a2.8,2.8,0,0,0-.22,5.6h.22a2.8,2.8,0,0,0,.23-5.6"/></svg>